0
SECTION
2
HEADER
9
$INSUNITS
70
4
9
$ACADVER
1
AC1014
9
$HANDSEED
5
FFFF
0
ENDSEC
0
SECTION
2
TABLES
0
TABLE
2
VPORT
5
8
100
AcDbSymbolTable
0
ENDTAB
0
TABLE
2
LTYPE
5
5
100
AcDbSymbolTable
0
LTYPE
5
14
100
AcDbSymbolTableRecord
100
AcDbLinetypeTableRecord
2
BYBLOCK
70
0
0
LTYPE
5
15
100
AcDbSymbolTableRecord
100
AcDbLinetypeTableRecord
2
BYLAYER
70
0
0
ENDTAB
0
TABLE
2
LAYER
5
2
100
AcDbSymbolTable
70
2
0
LAYER
5
50
100
AcDbSymbolTableRecord
100
AcDbLayerTableRecord
2
0
70
0
6
CONTINUOUS
0
ENDTAB
0
TABLE
2
STYLE
5
3
100
AcDbSymbolTable
70
1
0
STYLE
5
11
100
AcDbSymbolTableRecord
100
AcDbTextStyleTableRecord
2
STANDARD
70
0
0
ENDTAB
0
TABLE
2
VIEW
5
6
100
AcDbSymbolTable
70
0
0
ENDTAB
0
TABLE
2
UCS
5
7
100
AcDbSymbolTable
70
0
0
ENDTAB
0
TABLE
2
APPID
5
9
100
AcDbSymbolTable
70
2
0
APPID
5
12
100
AcDbSymbolTableRecord
100
AcDbRegAppTableRecord
2
ACAD
70
0
0
ENDTAB
0
TABLE
2
DIMSTYLE
5
A
100
AcDbSymbolTable
70
1
0
ENDTAB
0
TABLE
2
BLOCK_RECORD
5
1
100
AcDbSymbolTable
70
1
0
BLOCK_RECORD
5
1F
100
AcDbSymbolTableRecord
100
AcDbBlockTableRecord
2
*MODEL_SPACE
0
BLOCK_RECORD
5
1B
100
AcDbSymbolTableRecord
100
AcDbBlockTableRecord
2
*PAPER_SPACE
0
ENDTAB
0
ENDSEC
0
SECTION
2
BLOCKS
0
BLOCK
5
20
100
AcDbEntity
100
AcDbBlockBegin
2
*MODEL_SPACE
0
ENDBLK
5
21
100
AcDbEntity
100
AcDbBlockEnd
0
BLOCK
5
1C
100
AcDbEntity
100
AcDbBlockBegin
2
*PAPER_SPACE
0
ENDBLK
5
1D
100
AcDbEntity
100
AcDbBlockEnd
0
ENDSEC
0
SECTION
2
ENTITIES
0
CIRCLE
5
100
100
AcDbEntity
8
0
100
AcDbCircle
10
-334.0117359161377
20
56.971396207809448
30
0
40
14.972980587141326
0
CIRCLE
5
101
100
AcDbEntity
8
0
100
AcDbCircle
10
-962.22034454345703
20
56.961308717727661
30
0
40
14.972978372401307
0
CIRCLE
5
102
100
AcDbEntity
8
0
100
AcDbCircle
10
-962.23093032836914
20
532.79958724975586
30
0
40
14.97299235380757
0
LWPOLYLINE
5
103
100
AcDbEntity
8
0
100
AcDbPolyline
90
10
70
1
43
0.0
10
-20.1981520652771
20
44.813647270202637
42
-0.41421356237309503
10
-55.1981520652771
20
9.8136472702026367
10
-974.18930053710938
20
9.81364727020269
42
-0.41421356237309698
10
-1009.1893005371094
20
44.813647270202637
10
-1009.1893005371094
20
544.70035552978516
10
-1009.1893005371094
20
559.70035552978516
42
-0.41421356237309626
10
-974.18930053710926
20
594.70035552978516
10
-55.1981520652771
20
594.70035552978516
42
-0.41421356237309503
10
-20.1981520652771
20
559.70035552978516
10
-20.1981520652771
20
544.70035552978516
0
CIRCLE
5
104
100
AcDbEntity
8
0
100
AcDbCircle
10
-333.99999999999989
20
533
30
0
40
14.999999999999984
0
CIRCLE
5
105
100
AcDbEntity
8
0
100
AcDbCircle
10
-513.99999999999989
20
393.00000000000006
30
0
40
15.000000000000009
0
CIRCLE
5
106
100
AcDbEntity
8
0
100
AcDbCircle
10
-513.99999999999989
20
533
30
0
40
15.000000000000009
0
CIRCLE
5
107
100
AcDbEntity
8
0
100
AcDbCircle
10
-693.99999999999989
20
533
30
0
40
14.999999999999982
0
CIRCLE
5
108
100
AcDbEntity
8
0
100
AcDbCircle
10
-873.99999999999989
20
533
30
0
40
15
0
CIRCLE
5
109
100
AcDbEntity
8
0
100
AcDbCircle
10
-873.99999999999989
20
393.00000000000006
30
0
40
15.000000000000002
0
CIRCLE
5
110
100
AcDbEntity
8
0
100
AcDbCircle
10
-873.99999999999989
20
253.00000000000006
30
0
40
15
0
CIRCLE
5
111
100
AcDbEntity
8
0
100
AcDbCircle
10
-693.99999999999989
20
253.00000000000006
30
0
40
14.999999999999993
0
CIRCLE
5
112
100
AcDbEntity
8
0
100
AcDbCircle
10
-513.99999999999989
20
253.00000000000006
30
0
40
15
0
CIRCLE
5
113
100
AcDbEntity
8
0
100
AcDbCircle
10
-333.99999999999989
20
253.00000000000006
30
0
40
14.999999999999998
0
LWPOLYLINE
5
114
100
AcDbEntity
8
0
100
AcDbPolyline
90
13
70
1
43
0.0
10
-283.99999999999989
20
573
10
-273.99999999999989
20
573
10
-83.999999999999901
20
573
42
-0.41421356237309542
10
-68.999999999999901
20
558
10
-68.999999999999886
20
548.00000000000011
42
-0.41421356237309648
10
-83.999999999999886
20
533
10
-233.99999999999991
20
533
42
0.41421356237309503
10
-248.99999999999991
20
518
10
-248.99999999999991
20
298.00000000000006
42
-0.41421356237309365
10
-263.99999999999989
20
283.00000000000011
10
-283.99999999999989
20
283.00000000000011
42
-0.41421356237309503
10
-298.99999999999989
20
298.00000000000011
10
-298.99999999999989
20
558
42
-0.41421356237309503
0
ENDSEC
0
SECTION
2
OBJECTS
0
DICTIONARY
5
C
100
AcDbDictionary
3
ACAD_GROUP
350
D
3
ACAD_MLINESTYLE
350
17
0
DICTIONARY
5
D
100
AcDbDictionary
0
DICTIONARY
5
1A
330
C
100
AcDbDictionary
0
DICTIONARY
5
17
100
AcDbDictionary
0
ENDSEC
0
EOF
